<?xml version="1.0" standalone="no"?>
<!DOCTYPE svg PUBLIC "-//W3C//DTD SVG 20010904//EN"
 "http://www.w3.org/TR/2001/REC-SVG-20010904/DTD/svg10.dtd">
<svg version="1.0" xmlns="http://www.w3.org/2000/svg"
 width="1200.000000pt" height="1200.000000pt" viewBox="0 0 1200.000000 1200.000000"
 preserveAspectRatio="xMidYMid meet">
<metadata>
Created by potrace 1.14, written by Peter Selinger 2001-2017
</metadata>
<g transform="translate(0.000000,1200.000000) scale(0.100000,-0.100000)"
fill="#000000" stroke="none">
<path d="M5956 9733 c-4 -5 -31 -21 -61 -38 -29 -16 -90 -51 -135 -76 l-81
-46 37 -54 c21 -30 64 -92 96 -139 33 -47 71 -102 85 -123 23 -33 25 -42 16
-72 -8 -26 -8 -38 3 -52 18 -24 17 -54 -1 -80 -9 -12 -22 -39 -29 -60 -8 -21
-44 -101 -81 -178 -96 -201 -183 -384 -238 -505 -13 -30 -49 -107 -79 -170
-30 -63 -64 -135 -76 -160 -24 -55 -101 -216 -192 -406 -37 -77 -73 -157 -80
-176 l-13 -36 84 -103 c46 -57 86 -106 89 -109 4 -3 33 -39 66 -80 32 -41 66
-81 74 -90 9 -9 29 -33 45 -55 17 -22 37 -47 45 -55 8 -9 38 -44 65 -78 45
-56 51 -60 62 -44 7 9 16 22 21 28 5 6 21 33 34 60 23 47 46 89 130 237 21 38
38 71 38 74 0 3 34 67 76 142 41 75 80 144 85 154 5 10 24 44 41 75 17 31 42
77 55 102 59 111 91 169 117 215 16 28 49 88 74 135 25 47 58 108 74 135 15
28 42 78 60 113 33 63 33 63 51 41 22 -27 21 -37 -5 -79 -11 -19 -38 -66 -58
-105 -74 -139 -151 -280 -160 -295 -6 -8 -21 -37 -35 -65 -14 -27 -37 -70 -51
-95 -14 -25 -45 -81 -68 -125 -24 -44 -52 -96 -63 -115 -20 -35 -72 -130 -123
-225 -14 -27 -39 -72 -55 -100 -15 -27 -47 -87 -72 -133 -24 -45 -55 -101 -68
-125 -14 -23 -32 -59 -41 -79 -19 -44 -27 -46 -48 -16 -17 24 -18 24 -32 -11
-10 -23 -17 -16 -138 130 -70 85 -135 163 -144 174 -10 11 -46 56 -82 100 -35
44 -67 82 -70 85 -10 9 -86 105 -93 117 -4 6 -2 24 3 39 8 21 7 32 -6 52 -16
24 -17 25 -30 7 -16 -21 -19 -55 -5 -55 18 0 23 -42 8 -73 -9 -18 -27 -59 -42
-92 -15 -33 -50 -107 -77 -165 -28 -58 -64 -134 -80 -170 -34 -72 -107 -228
-143 -305 -48 -102 -95 -208 -93 -210 10 -8 141 -85 145 -85 2 0 23 -13 46
-29 23 -15 52 -31 65 -35 12 -4 22 -11 22 -16 0 -5 10 -12 22 -16 12 -3 45
-22 74 -40 29 -19 55 -34 58 -34 3 0 29 -15 58 -33 67 -41 107 -62 112 -56 2
2 23 40 47 84 23 44 53 98 66 120 12 22 34 63 48 90 13 28 39 75 56 105 51 88
96 171 124 228 27 55 35 61 55 37 14 -17 7 -58 -18 -95 -20 -30 -75 -130 -102
-185 -11 -22 -24 -47 -29 -55 -29 -47 -161 -289 -161 -295 0 -4 -10 -20 -21
-37 -18 -25 -19 -32 -8 -39 8 -5 59 -35 114 -66 55 -31 107 -62 115 -69 8 -6
46 -28 85 -49 38 -20 81 -46 94 -56 13 -11 28 -19 33 -19 5 0 29 -13 53 -30
24 -16 48 -30 54 -30 5 0 16 -6 23 -13 7 -7 33 -24 58 -38 58 -33 96 -29 163
16 28 19 56 35 60 35 5 0 21 8 35 19 32 22 104 65 150 88 38 20 39 23 10 55
-13 13 -34 39 -48 58 -14 18 -32 40 -41 49 -8 9 -33 38 -55 66 -21 27 -45 56
-52 63 -7 8 -25 30 -40 50 -15 21 -31 42 -37 48 -30 34 -106 125 -148 178 -86
108 -111 138 -176 215 -36 42 -71 83 -78 92 -11 13 -11 22 -2 43 7 14 15 26
18 26 3 -1 26 -26 51 -56 25 -31 53 -65 63 -77 10 -12 45 -56 79 -97 33 -41
72 -89 87 -105 29 -34 62 -74 106 -130 17 -22 81 -100 142 -174 62 -75 123
-149 135 -165 13 -16 34 -42 48 -59 l26 -29 49 30 c147 88 206 122 212 122 4
0 23 11 42 23 20 13 100 61 177 107 78 46 146 91 152 101 7 10 33 58 58 106
62 117 101 189 132 243 26 47 64 116 114 210 16 30 42 79 58 109 l29 54 -22
37 c-12 21 -42 67 -66 102 -38 54 -107 154 -161 233 -8 12 -37 55 -65 96 -27
40 -55 80 -62 89 -6 8 -50 71 -97 140 -47 69 -120 176 -163 238 -43 62 -82
121 -88 130 -5 9 -12 19 -15 22 -3 3 -9 12 -15 22 -9 15 -47 70 -125 180 -29
42 -31 49 -22 77 8 23 8 38 0 56 -14 30 -28 32 -35 5 -7 -26 -16 -25 -36 3
-71 97 -137 193 -175 252 -25 38 -48 72 -51 75 -3 3 -38 52 -76 110 -39 58
-108 159 -153 226 -79 115 -82 121 -71 152 9 27 8 37 -6 58 -15 24 -15 28 0
67 15 37 73 161 161 344 33 68 36 93 13 93 -5 0 -27 11 -49 25 -38 24 -99 33
-114 18z"/>
<path d="M6185 9641 c-3 -6 -4 -11 -1 -11 3 0 -21 -53 -53 -117 -32 -65 -66
-138 -77 -163 -10 -25 -34 -74 -51 -110 -18 -35 -33 -69 -33 -75 0 -10 108
-176 189 -290 23 -33 68 -98 99 -145 31 -47 59 -87 63 -90 3 -3 27 -39 54 -80
27 -41 54 -80 60 -86 6 -6 28 -39 50 -72 21 -34 42 -59 46 -56 4 2 14 17 22
32 8 15 29 56 47 92 18 36 70 130 115 210 45 80 92 165 104 190 12 25 37 72
56 105 18 33 38 69 43 80 5 11 23 43 40 72 30 51 30 62 -3 74 -12 4 -250 143
-293 171 -15 10 -45 28 -67 40 -22 12 -48 27 -57 33 -9 5 -41 23 -70 39 -29
15 -60 34 -68 41 -8 7 -51 32 -95 55 -44 23 -87 49 -97 57 -11 10 -18 11 -23
4z"/>
<path d="M5565 9503 c-33 -19 -89 -51 -125 -70 -36 -20 -71 -41 -79 -47 -15
-12 -48 -32 -71 -42 -8 -4 -34 -20 -57 -36 -23 -15 -44 -28 -47 -28 -4 0 -61
-33 -129 -72 -68 -40 -136 -81 -152 -90 -17 -9 -64 -36 -105 -59 -41 -23 -77
-45 -80 -49 -4 -5 -127 -77 -205 -119 -16 -10 -49 -29 -73 -44 -24 -15 -53
-32 -65 -37 -23 -10 -34 -17 -102 -61 -22 -15 -50 -29 -62 -33 -22 -7 -23 -12
-23 -112 0 -85 3 -107 18 -123 25 -27 95 -111 112 -135 14 -21 82 -104 168
-204 25 -29 58 -70 73 -90 16 -20 71 -89 124 -152 52 -63 129 -155 169 -205
41 -49 107 -130 148 -179 40 -50 77 -90 81 -90 4 -1 26 40 48 89 22 50 62 135
88 190 27 55 56 118 66 140 10 22 40 87 67 145 27 58 64 137 82 175 39 82 84
179 154 325 27 58 66 141 87 185 20 44 52 112 71 152 19 39 34 74 34 77 0 3
26 60 59 125 66 134 67 115 -12 228 -27 37 -81 116 -120 175 -40 60 -74 108
-77 107 -3 0 -32 -17 -65 -36z"/>
<path d="M7007 9098 c-14 -29 -39 -75 -55 -103 -41 -72 -100 -179 -142 -260
-20 -38 -50 -92 -65 -120 -50 -88 -175 -325 -175 -331 0 -7 115 -180 175 -262
25 -34 45 -67 45 -72 0 -4 3 -10 8 -12 4 -1 38 -48 75 -103 37 -55 81 -120 99
-145 42 -60 152 -221 237 -345 37 -55 87 -128 112 -163 24 -35 49 -71 54 -80
6 -9 12 -19 15 -22 3 -3 24 -34 48 -69 40 -59 42 -66 31 -93 -9 -23 -9 -35 1
-56 l12 -27 19 24 c11 14 23 20 28 15 11 -14 85 -116 96 -135 53 -87 124 -179
138 -179 7 0 20 7 30 14 17 13 18 38 18 368 0 194 0 380 -1 413 l0 60 -33 -55
c-18 -30 -43 -75 -56 -100 -12 -25 -36 -70 -53 -100 -30 -53 -79 -144 -120
-223 -23 -42 -38 -56 -38 -33 0 9 -4 16 -10 16 -20 0 -9 43 24 99 33 56 94
168 148 271 15 30 32 62 37 70 6 8 30 53 56 99 l46 84 0 476 c0 262 0 523 0
582 l-1 105 -42 22 c-24 12 -61 33 -83 47 -22 13 -51 29 -64 35 -13 6 -36 19
-50 29 -15 11 -47 30 -71 44 -25 13 -82 46 -128 73 -46 27 -95 56 -110 64 -14
8 -56 33 -92 54 -76 46 -130 76 -133 76 -2 0 -15 -24 -30 -52z"/>
<path d="M4187 7501 l2 -906 23 -18 c13 -10 91 -57 173 -104 83 -47 162 -94
178 -104 15 -11 27 -15 27 -10 0 5 31 74 69 153 37 78 84 177 103 218 20 41
54 116 78 165 23 50 57 122 75 160 18 39 56 118 84 178 28 59 51 112 51 118 0
12 -68 97 -345 434 -313 380 -414 502 -452 548 -24 28 -43 54 -43 58 0 4 -6 9
-12 12 -10 3 -13 -180 -11 -902z"/>
<path d="M7466 6791 c-15 -23 -31 -53 -36 -66 -8 -21 -49 -96 -167 -305 -11
-19 -39 -71 -63 -115 -23 -44 -48 -86 -54 -94 -12 -15 40 12 189 99 50 29 110
64 135 78 25 14 72 42 106 64 34 21 66 38 71 38 17 0 58 41 48 48 -6 4 -14 14
-20 23 -5 9 -37 56 -70 104 -33 47 -72 105 -86 127 l-27 41 -26 -42z"/>
<path d="M1592 4685 c-55 -17 -68 -29 -98 -88 l-25 -49 3 -276 c3 -264 4 -279
25 -317 42 -75 95 -94 261 -95 l102 0 -2 45 -1 45 -103 0 c-108 0 -142 9 -162
41 -14 22 -20 528 -7 568 12 38 55 51 168 51 l104 0 1 45 1 45 -112 -1 c-63 0
-131 -6 -155 -14z"/>
<path d="M2897 4685 c-8 -19 -8 -791 0 -810 4 -12 32 -15 152 -14 167 1 202 9
244 61 32 40 47 114 47 238 0 187 -29 258 -117 285 -53 17 -162 17 -211 0
l-23 -8 3 132 3 131 -46 0 c-32 0 -49 -5 -52 -15z m297 -326 c13 -6 27 -21 30
-33 8 -28 7 -305 0 -333 -9 -32 -51 -44 -145 -41 l-84 3 0 186 c0 228 0 229
106 229 37 0 79 -5 93 -11z"/>
<path d="M5194 4686 c-88 -28 -124 -90 -124 -214 1 -134 55 -208 161 -218 110
-10 119 -14 130 -42 15 -38 13 -196 -3 -221 -19 -31 -61 -41 -169 -41 l-99 0
0 -46 0 -46 133 4 c128 3 134 4 174 33 62 45 77 85 77 218 0 102 -2 115 -24
150 -33 49 -91 77 -162 77 -79 0 -99 19 -109 101 -9 75 -4 106 21 139 18 24
25 25 139 28 l121 4 -2 44 -3 44 -110 -1 c-60 0 -128 -6 -151 -13z"/>
<path d="M8038 4688 c0 -7 -2 -28 -3 -45 l-1 -33 97 0 98 0 0 -287 c0 -313 -5
-344 -54 -363 -15 -6 -62 -10 -106 -10 l-79 0 0 -46 0 -47 108 5 c120 5 157
19 200 78 32 43 37 112 34 463 l-2 297 -145 0 c-109 0 -145 -3 -147 -12z"/>
<path d="M10125 4280 l0 -420 52 0 52 0 -2 123 c-1 114 9 167 31 167 7 0 60
-88 134 -219 l36 -66 67 -3 66 -3 -33 54 c-18 29 -38 62 -45 73 -7 10 -26 44
-44 74 -17 30 -35 57 -38 60 -21 17 -61 94 -56 108 3 9 24 38 48 63 23 26 66
74 95 108 l53 61 -60 0 c-60 0 -61 0 -108 -52 -26 -28 -55 -59 -63 -68 -8 -9
-30 -33 -47 -53 -18 -21 -33 -34 -34 -30 0 4 0 106 0 226 l0 217 -52 0 -52 0
0 -420z"/>
<path d="M2140 4453 c0 -4 44 -139 97 -300 62 -189 101 -293 110 -293 16 0 16
3 -3 -52 -16 -48 -31 -58 -89 -58 -29 0 -31 -2 -30 -45 l0 -45 51 0 c69 0 120
22 140 62 9 17 59 182 111 367 51 185 96 344 99 354 5 16 0 18 -47 15 l-54 -3
-38 -145 c-21 -80 -50 -192 -64 -250 l-26 -104 -72 241 c-40 132 -75 245 -79
252 -8 12 -106 16 -106 4z"/>
<path d="M3750 4454 c-114 -38 -125 -62 -125 -279 0 -182 7 -226 38 -256 48
-46 95 -59 218 -59 126 0 126 0 125 55 l-1 30 -123 5 c-155 6 -151 3 -156 138
l-1 27 161 5 161 5 -2 105 c-3 142 -21 182 -102 216 -31 13 -160 18 -193 8z
m170 -104 c11 -11 20 -26 21 -32 0 -7 2 -34 4 -60 l4 -48 -113 0 -113 0 -2 50
c-1 49 11 88 33 102 6 4 41 8 79 8 54 0 71 -4 87 -20z"/>
<path d="M4350 4415 l0 -45 44 0 43 0 0 -210 0 -210 -43 0 -44 0 0 -45 0 -45
160 0 160 0 0 45 0 45 -65 0 -65 0 0 184 c0 181 0 183 25 210 22 24 30 26 104
26 87 0 91 3 82 63 l-4 29 -86 -5 c-47 -2 -97 -8 -110 -12 -17 -6 -22 -5 -17
3 5 9 -19 12 -88 12 l-96 0 0 -45z"/>
<path d="M5910 4454 c-70 -23 -89 -38 -109 -85 -20 -44 -21 -63 -17 -216 5
-214 11 -230 101 -273 32 -16 62 -20 156 -20 126 0 126 0 125 55 l-1 30 -123
5 c-155 6 -151 3 -156 138 l-1 27 158 3 c115 2 157 6 158 15 4 66 -3 210 -11
232 -13 34 -44 63 -87 81 -31 13 -160 18 -193 8z m169 -101 c16 -14 22 -33 26
-80 l5 -63 -115 0 -115 0 0 51 c0 50 12 87 34 101 6 4 41 8 77 8 49 0 72 -5
88 -17z"/>
<path d="M6685 4455 c-5 -2 -22 -6 -37 -9 -15 -3 -39 -17 -53 -30 -44 -40 -55
-94 -55 -256 0 -163 11 -213 56 -255 37 -35 83 -45 202 -45 l102 0 0 44 0 44
-110 4 c-94 3 -111 6 -124 23 -31 43 -31 327 0 370 13 17 30 21 127 25 62 3
111 8 110 13 -2 4 -3 23 -3 42 l0 35 -102 -1 c-57 0 -107 -2 -113 -4z"/>
<path d="M8690 4416 l0 -44 120 -4 c139 -4 148 -8 152 -83 l3 -50 -110 -6
c-111 -5 -142 -14 -178 -53 -25 -28 -32 -60 -32 -151 0 -71 3 -85 25 -112 14
-17 32 -35 40 -39 8 -4 66 -9 128 -12 98 -4 115 -2 132 13 18 16 21 17 44 1
25 -16 105 -23 107 -8 11 56 6 74 -21 83 -15 6 -31 20 -34 32 -3 12 -6 97 -6
188 0 179 -7 213 -50 247 -39 31 -96 42 -212 42 l-108 0 0 -44z m273 -365 c-2
-55 -7 -88 -15 -93 -7 -4 -50 -8 -95 -8 -104 0 -114 8 -110 92 4 87 22 100
136 96 l86 -3 -2 -84z"/>
<path d="M9565 4455 c-5 -2 -22 -6 -37 -9 -15 -3 -39 -17 -53 -30 -44 -40 -55
-94 -55 -256 0 -163 11 -213 56 -255 37 -35 83 -45 202 -45 l102 0 0 44 0 44
-110 4 c-94 3 -111 6 -124 23 -31 43 -31 327 0 370 13 17 30 21 127 25 62 3
111 8 110 13 -2 4 -3 23 -3 42 l0 35 -102 -1 c-57 0 -107 -2 -113 -4z"/>
<path d="M7250 4235 l0 -45 195 0 195 0 0 45 0 45 -195 0 -195 0 0 -45z"/>
</g>
</svg>
